<?xml version="1.0" standalone="no"?>
<!DOCTYPE svg PUBLIC "-//W3C//DTD SVG 20010904//EN"
 "http://www.w3.org/TR/2001/REC-SVG-20010904/DTD/svg10.dtd">
<svg version="1.0" xmlns="http://www.w3.org/2000/svg"
 width="1087.000000pt" height="865.000000pt" viewBox="0 0 1087.000000 865.000000"
 preserveAspectRatio="xMidYMid meet">

<g transform="translate(0.000000,865.000000) scale(0.100000,-0.100000)"
fill="#000000" stroke="none">
<path d="M550 8203 c0 -16 10 -59 21 -94 12 -35 25 -80 30 -99 4 -19 21 -91
39 -160 17 -69 35 -143 40 -165 4 -22 17 -87 29 -145 11 -58 25 -127 30 -155
6 -27 15 -75 21 -105 6 -30 13 -73 16 -95 11 -89 58 -329 72 -365 3 -8 7 -28
9 -45 2 -16 10 -59 19 -95 8 -36 20 -87 25 -115 24 -114 41 -192 49 -225 4
-19 16 -71 25 -115 9 -44 20 -96 25 -115 5 -19 18 -79 29 -133 11 -54 24 -104
28 -110 4 -7 9 -21 10 -32 3 -21 6 -35 53 -195 17 -58 35 -114 39 -125 5 -11
21 -54 36 -95 73 -194 219 -480 306 -597 22 -29 39 -55 39 -57 0 -17 188 -209
268 -275 87 -72 182 -130 182 -114 0 5 5 0 11 -9 5 -10 18 -18 27 -18 10 0 22
-4 28 -9 5 -4 34 -16 64 -26 30 -10 64 -22 75 -26 65 -28 220 -51 335 -51 135
0 371 29 402 49 7 4 21 9 31 10 10 2 42 14 71 28 29 14 58 25 64 25 11 0 74
31 82 41 3 4 15 9 28 13 12 4 22 12 22 17 0 5 5 9 11 9 22 0 152 116 214 191
30 36 85 124 85 137 0 5 3 12 8 14 8 4 62 109 62 121 0 5 6 23 14 40 13 31 31
98 56 217 16 75 4 270 -23 375 -22 84 -78 206 -126 273 -11 17 -21 35 -21 40
0 6 -4 12 -8 14 -4 2 -29 30 -54 64 -72 94 -253 253 -272 239 -3 -3 -4 -2 -1
2 7 9 -82 64 -106 66 -10 1 -21 7 -23 14 -3 7 -14 13 -24 13 -10 0 -22 3 -26
7 -6 6 -24 13 -123 49 -105 37 -281 55 -332 35 -14 -6 -39 -13 -56 -15 -95
-14 -242 -93 -329 -178 -39 -38 -66 -68 -61 -68 4 0 1 -8 -7 -17 -53 -62 -81
-165 -81 -303 -1 -110 17 -204 44 -234 5 -6 9 -16 9 -23 0 -42 191 -263 226
-263 8 0 14 -4 14 -8 0 -5 25 -21 56 -36 75 -37 193 -55 286 -44 66 8 76 12
115 51 36 36 62 89 56 117 0 3 -3 24 -7 47 -3 23 -11 52 -18 65 -20 36 -71 88
-85 88 -7 0 -13 4 -13 8 0 5 -15 17 -34 27 -30 16 -40 17 -75 6 -35 -10 -44
-9 -66 5 -14 9 -25 21 -25 26 0 5 -4 7 -8 4 -5 -3 -22 20 -38 51 -49 94 -37
164 40 237 17 16 31 28 31 27 0 -3 36 9 61 21 53 25 231 -13 327 -69 21 -13
43 -23 48 -23 6 0 8 -4 4 -9 -3 -5 3 -12 12 -15 44 -15 176 -160 209 -229 10
-20 21 -37 26 -37 4 0 8 -11 8 -24 0 -14 4 -27 8 -30 14 -8 45 -173 39 -203
-3 -15 -12 -66 -21 -113 -19 -108 -36 -170 -47 -170 -5 0 -9 -8 -9 -19 0 -10
-7 -24 -15 -31 -8 -7 -15 -16 -15 -21 0 -16 -97 -120 -163 -177 -33 -27 -97
-62 -114 -62 -7 0 -13 -4 -13 -9 0 -9 -23 -15 -130 -32 -80 -13 -382 -8 -401
6 -8 6 -39 19 -69 30 -118 40 -210 106 -305 215 -52 60 -145 188 -145 199 0 6
-4 11 -10 11 -5 0 -10 6 -10 14 0 7 -6 19 -13 25 -13 10 -82 145 -146 286 -18
39 -37 78 -42 87 -5 10 -9 26 -9 35 0 10 -7 27 -15 37 -8 11 -15 29 -15 41 0
12 -5 26 -12 33 -6 6 -13 20 -14 29 -2 20 -25 116 -49 208 -8 33 -19 78 -24
100 -13 57 -38 168 -57 250 -9 39 -20 90 -24 115 -5 25 -15 74 -23 110 -26
114 -49 224 -57 270 -5 25 -12 59 -15 75 -7 31 -25 135 -51 290 -9 50 -20 113
-24 140 -5 28 -16 95 -26 150 -9 55 -20 113 -25 129 -12 37 -11 83 0 90 10 6
147 -26 158 -37 3 -4 19 -7 34 -7 15 0 30 -4 33 -9 3 -5 18 -12 33 -16 38 -9
133 -54 162 -76 13 -11 28 -16 34 -12 5 3 7 2 4 -4 -8 -12 74 -58 120 -68 18
-3 35 -11 38 -16 4 -5 16 -9 29 -9 12 0 27 -5 32 -10 6 -6 19 -12 30 -14 20
-5 95 -34 164 -64 14 -6 48 -20 75 -31 88 -33 375 -168 385 -180 3 -3 32 -19
65 -36 32 -16 87 -48 121 -70 135 -86 219 -137 222 -134 2 2 8 -4 13 -13 6
-10 16 -18 23 -18 8 0 17 -7 20 -16 3 -8 10 -13 15 -10 5 4 11 3 13 -2 4 -11
106 -82 117 -82 5 0 11 -4 13 -8 2 -5 26 -26 53 -46 58 -43 253 -222 305 -280
19 -22 53 -58 75 -81 22 -23 52 -57 65 -74 27 -35 51 -64 81 -99 10 -12 19
-24 19 -27 0 -2 21 -35 46 -72 53 -79 154 -283 179 -363 10 -30 21 -64 26 -75
29 -73 46 -362 27 -470 -4 -22 -10 -65 -13 -95 -6 -54 -13 -78 -42 -170 -29
-90 -77 -196 -143 -315 -46 -84 -132 -213 -168 -254 -17 -19 -28 -40 -25 -45
3 -6 3 -8 -2 -4 -4 4 -27 -8 -50 -27 -23 -19 -45 -35 -48 -35 -3 0 -25 -18
-48 -40 -24 -22 -49 -40 -55 -40 -7 0 -14 -4 -16 -9 -1 -4 -30 -23 -63 -41
-33 -18 -63 -38 -67 -44 -4 -6 -13 -11 -20 -12 -19 -1 -86 -32 -93 -44 -3 -5
-15 -10 -25 -10 -10 0 -20 -3 -22 -7 -5 -12 -321 -165 -365 -178 -13 -3 -23
-11 -23 -16 0 -6 -5 -7 -10 -4 -6 4 -22 0 -35 -9 -13 -9 -31 -16 -39 -16 -8 0
-16 -3 -18 -7 -1 -5 -48 -30 -103 -58 -111 -55 -198 -107 -232 -138 -13 -11
-23 -17 -23 -13 0 4 -7 1 -15 -6 -15 -14 -16 -15 -85 -68 -111 -87 -272 -247
-300 -299 -7 -14 -20 -33 -30 -43 -9 -10 -26 -37 -39 -60 -12 -24 -31 -58 -42
-77 -28 -48 -79 -177 -79 -201 0 -11 -4 -28 -9 -38 -5 -9 -17 -68 -27 -129
-43 -289 51 -604 262 -879 82 -107 334 -354 362 -354 6 0 12 -4 12 -9 0 -7 67
-58 144 -111 75 -51 166 -109 196 -126 19 -10 37 -21 40 -24 9 -11 163 -96
290 -161 106 -54 284 -126 340 -136 14 -2 34 -9 45 -14 41 -19 192 -44 315
-52 118 -8 321 20 382 54 10 5 24 9 32 9 19 0 176 81 176 91 0 4 8 10 18 13
24 8 132 111 186 178 47 59 106 152 141 223 11 22 22 42 25 45 13 13 40 70 40
83 0 9 4 17 10 19 5 2 11 13 13 26 2 12 9 28 15 34 7 7 12 18 12 25 0 7 4 21
10 31 5 9 16 35 25 57 9 22 23 55 31 73 8 18 14 41 14 52 0 10 3 20 7 22 5 2
18 32 30 68 12 36 27 81 34 100 7 19 14 42 17 50 3 8 29 85 59 170 29 85 55
162 57 170 6 23 107 331 121 370 7 19 18 55 25 80 7 25 18 63 25 85 14 46 42
143 55 195 4 19 15 60 23 90 8 30 20 84 27 120 6 36 18 97 25 135 8 39 17 97
20 130 4 33 10 87 15 120 10 78 4 454 -9 525 -5 30 -12 78 -15 105 -5 44 -12
82 -45 250 -14 67 -33 139 -42 157 -5 9 -12 35 -15 58 -4 22 -11 43 -15 46 -5
3 -9 15 -9 28 0 12 -4 26 -9 32 -4 5 -16 34 -25 64 -20 67 -41 120 -72 183
-13 27 -24 53 -24 59 0 14 -134 287 -162 328 -13 19 -30 49 -38 65 -8 17 -21
36 -27 43 -7 7 -13 20 -13 28 0 8 -4 14 -9 14 -5 0 -11 8 -15 18 -5 17 -21 42
-43 71 -7 9 -44 61 -82 116 -162 231 -308 404 -510 603 -75 73 -141 130 -148
128 -7 -3 -10 1 -7 8 5 13 -44 53 -58 48 -5 -1 -7 1 -5 6 3 12 -119 132 -127
124 -4 -4 -6 -2 -4 5 3 12 -66 81 -151 152 -25 20 -65 53 -89 74 -25 22 -70
57 -101 80 -31 22 -57 44 -59 49 -2 4 -10 8 -18 8 -8 0 -14 4 -14 9 0 5 -42
36 -92 69 -51 34 -99 66 -106 72 -7 7 -23 17 -35 24 -12 6 -48 28 -79 49 -31
20 -62 37 -68 37 -5 0 -29 14 -52 30 -22 17 -47 30 -55 30 -7 0 -13 5 -13 10
0 6 -11 10 -25 10 -14 0 -25 4 -25 9 0 9 -278 151 -297 151 -7 0 -13 4 -13 8
0 5 -33 23 -72 41 -40 18 -95 43 -123 56 -45 20 -113 48 -230 92 -22 9 -54 22
-72 29 -17 8 -36 14 -42 14 -6 0 -19 4 -29 9 -20 12 -135 53 -212 77 -30 9
-63 21 -72 25 -10 5 -26 9 -35 9 -10 0 -31 7 -47 15 -15 8 -35 15 -43 15 -15
0 -103 26 -138 40 -11 5 -31 11 -45 13 -14 3 -50 13 -80 22 -30 8 -107 30
-170 46 -63 17 -128 35 -145 39 -16 5 -70 18 -120 30 -49 12 -98 26 -107 31
-9 5 -36 12 -60 15 -24 4 -49 11 -55 17 -10 7 -13 2 -13 -20z m3978 -3024 c22
-42 44 -84 49 -95 6 -10 18 -33 27 -51 9 -17 16 -38 16 -47 0 -9 5 -16 10 -16
6 0 10 -9 10 -19 0 -11 6 -26 13 -33 6 -7 13 -20 15 -28 2 -14 15 -48 47 -125
19 -46 61 -185 99 -327 44 -167 80 -450 79 -618 -1 -68 -22 -331 -28 -340 -3
-5 -10 -37 -15 -72 -5 -35 -16 -94 -25 -133 -9 -38 -20 -88 -25 -110 -24 -108
-33 -141 -41 -149 -5 -6 -9 -19 -9 -30 0 -11 -6 -38 -14 -61 -8 -22 -26 -80
-41 -130 -15 -49 -34 -107 -41 -128 -8 -20 -14 -46 -14 -57 0 -11 -4 -20 -10
-20 -5 0 -10 -10 -10 -22 0 -13 -7 -36 -15 -52 -8 -15 -15 -39 -15 -52 0 -12
-4 -25 -9 -28 -5 -4 -12 -24 -16 -46 -4 -22 -10 -40 -15 -40 -4 0 -10 -12 -13
-28 -2 -15 -30 -99 -62 -187 -31 -88 -59 -169 -62 -180 -3 -11 -11 -34 -19
-52 -8 -17 -14 -36 -14 -42 0 -6 -4 -19 -9 -29 -5 -9 -17 -37 -26 -62 -17 -43
-37 -93 -55 -135 -4 -11 -11 -27 -14 -35 -3 -8 -10 -22 -15 -30 -8 -15 -37
-70 -52 -100 -4 -8 -10 -22 -13 -30 -17 -45 -125 -191 -173 -236 -96 -87 -232
-129 -386 -121 -162 9 -231 26 -442 111 -51 21 -296 146 -305 156 -5 6 -121
74 -161 95 -10 5 -19 13 -19 17 0 5 -6 8 -14 8 -8 0 -16 3 -18 8 -1 4 -30 25
-63 47 -71 47 -140 99 -161 120 -9 8 -20 12 -26 9 -7 -5 -8 -2 -4 5 5 8 0 14
-13 18 -11 3 -18 9 -15 14 3 5 1 9 -5 9 -18 0 -172 164 -231 247 -126 176
-178 337 -166 516 4 49 10 96 15 105 4 10 11 32 15 51 7 37 56 141 101 211 32
51 173 195 255 261 30 24 57 46 60 49 10 10 45 31 63 36 9 4 17 10 17 15 0 5
4 9 10 9 5 0 39 18 75 40 36 22 67 40 70 40 2 0 41 17 87 39 130 60 155 71
167 71 6 0 19 4 29 9 9 5 42 19 72 31 121 49 214 92 218 103 2 4 9 7 15 7 18
0 225 106 243 125 8 8 21 15 28 15 6 0 18 6 25 13 6 6 15 12 19 12 12 1 204
130 267 179 33 26 59 52 57 58 -1 5 2 7 8 3 5 -3 23 7 38 23 35 36 156 191
165 212 8 17 29 52 37 60 4 4 108 214 131 265 14 31 60 157 66 180 2 11 8 29
13 40 5 11 11 31 14 45 3 14 13 54 22 90 22 90 43 227 51 338 6 90 6 93 24 75
9 -10 35 -52 57 -94z"/>
<path d="M4288 3580 c-25 -27 -49 -50 -53 -50 -4 0 -18 -11 -31 -25 -13 -14
-28 -25 -34 -25 -5 0 -10 -4 -10 -9 0 -5 -8 -12 -18 -15 -10 -4 -27 -14 -38
-24 -10 -10 -37 -29 -59 -42 -22 -13 -42 -27 -45 -30 -9 -11 -146 -99 -196
-125 -27 -15 -71 -40 -99 -56 -83 -48 -376 -189 -390 -188 -3 0 -18 -7 -33
-15 -15 -7 -47 -22 -72 -31 -73 -28 -81 -31 -175 -70 -83 -35 -163 -73 -175
-85 -3 -3 -21 -13 -41 -23 -20 -10 -47 -29 -62 -43 -14 -13 -30 -24 -35 -24
-5 0 -37 -26 -71 -57 -64 -59 -121 -133 -121 -158 0 -8 -4 -17 -10 -20 -13 -8
-13 -64 2 -106 37 -109 182 -263 376 -401 37 -26 78 -53 92 -59 14 -5 34 -18
45 -28 11 -10 47 -33 80 -51 33 -18 76 -43 95 -55 118 -73 325 -152 415 -159
57 -4 60 -3 83 28 13 17 33 51 44 76 12 25 38 82 59 127 22 46 39 89 39 97 0
8 5 18 10 21 6 3 10 14 10 23 0 9 7 30 15 46 8 15 15 37 15 47 0 10 4 20 9 24
5 3 19 38 32 78 12 39 26 79 30 87 4 8 15 42 25 75 9 33 20 67 24 75 14 29 32
85 37 113 3 15 9 30 14 33 5 3 9 14 9 26 0 11 6 34 13 51 23 55 39 101 44 130
3 15 9 30 14 33 5 3 9 17 9 32 0 15 7 36 15 46 8 11 15 32 15 46 0 14 5 31 10
36 6 6 12 24 14 41 3 17 9 40 15 51 6 12 11 29 11 40 0 11 7 33 15 48 8 16 15
39 15 52 0 12 4 30 9 40 5 9 16 53 26 97 9 44 20 96 25 115 5 19 12 62 16 95
3 33 8 68 10 78 5 31 -21 18 -68 -33z"/>
<path d="M10410 8203 c-99 -26 -124 -32 -180 -45 -30 -7 -60 -16 -66 -20 -7
-5 -28 -10 -48 -12 -19 -3 -44 -10 -55 -16 -11 -5 -33 -10 -50 -10 -16 0 -32
-4 -35 -9 -3 -5 -23 -12 -43 -15 -21 -4 -51 -11 -68 -16 -16 -5 -57 -16 -90
-26 -33 -9 -71 -20 -85 -25 -14 -4 -52 -15 -85 -24 -33 -9 -69 -21 -80 -25
-11 -4 -65 -22 -120 -40 -96 -30 -197 -65 -277 -96 -48 -18 -96 -36 -173 -65
-63 -23 -102 -39 -159 -64 -19 -8 -39 -15 -44 -15 -6 0 -12 -5 -14 -10 -2 -6
-12 -12 -23 -14 -26 -5 -444 -215 -451 -227 -3 -5 -14 -9 -25 -9 -10 0 -19 -4
-19 -8 0 -4 -12 -13 -27 -19 -49 -22 -153 -80 -188 -107 -18 -14 -36 -26 -40
-26 -9 0 -160 -103 -163 -112 -2 -4 -18 -15 -35 -23 -18 -8 -47 -29 -66 -45
-18 -17 -37 -30 -40 -30 -4 0 -16 -8 -27 -18 -10 -9 -39 -33 -64 -52 -56 -44
-83 -66 -127 -107 -19 -18 -38 -33 -42 -33 -10 0 -221 -211 -221 -222 0 -4 -5
-8 -11 -8 -24 0 -359 -333 -488 -485 -134 -158 -131 -154 -131 -165 0 -6 -7
-13 -15 -16 -8 -4 -15 -12 -15 -20 0 -8 -4 -14 -9 -14 -10 0 -66 -82 -63 -92
1 -5 -2 -8 -7 -8 -5 0 -20 -17 -32 -37 -13 -21 -34 -49 -46 -63 -13 -14 -23
-33 -23 -42 0 -10 -3 -18 -7 -18 -12 0 -81 -113 -135 -217 -12 -24 -26 -43
-30 -43 -4 0 -8 -8 -8 -19 0 -10 -7 -24 -15 -31 -8 -7 -15 -18 -15 -25 0 -7
-22 -57 -50 -110 -28 -53 -50 -101 -50 -106 0 -5 -11 -32 -25 -61 -14 -28 -25
-56 -25 -61 0 -5 -6 -23 -14 -40 -8 -18 -22 -54 -31 -82 -8 -27 -19 -59 -24
-70 -18 -45 -41 -124 -41 -143 0 -12 -4 -23 -9 -27 -5 -3 -13 -30 -16 -60 -4
-30 -11 -55 -16 -55 -5 0 -9 -15 -9 -33 0 -17 -5 -48 -10 -67 -13 -43 -27
-136 -40 -257 -5 -51 -12 -118 -16 -150 -24 -200 14 -580 88 -878 11 -44 24
-96 28 -115 5 -19 16 -62 25 -95 9 -33 21 -78 26 -100 6 -22 14 -44 20 -49 5
-6 9 -22 9 -37 0 -15 5 -31 10 -34 6 -3 10 -15 10 -27 0 -11 6 -34 14 -51 7
-18 21 -59 31 -92 10 -33 21 -67 25 -75 4 -8 15 -42 24 -75 10 -33 22 -69 26
-80 5 -11 23 -63 40 -115 17 -52 35 -103 41 -112 5 -10 9 -26 9 -35 0 -10 7
-31 15 -47 8 -15 15 -33 15 -39 0 -15 61 -182 96 -264 8 -17 14 -36 14 -42 0
-6 4 -19 9 -29 5 -9 16 -34 25 -54 68 -159 146 -317 190 -388 22 -36 43 -67
47 -70 3 -3 16 -21 28 -40 37 -62 161 -177 246 -229 45 -28 87 -51 92 -51 5 0
28 -9 51 -20 127 -62 466 -83 617 -40 17 5 49 12 72 15 24 4 45 11 49 16 3 5
15 9 27 9 20 1 81 20 150 48 16 7 30 12 33 12 12 0 171 77 254 122 25 14 73
40 107 59 34 18 59 37 57 41 -3 4 3 8 13 9 10 0 32 9 48 20 17 10 37 22 45 26
41 18 305 205 376 265 86 73 123 111 117 121 -3 5 -1 7 4 4 12 -8 117 97 165
163 18 25 38 49 45 53 7 4 13 15 13 23 0 8 7 17 15 20 8 4 15 11 15 17 0 5 10
24 23 41 21 28 100 182 118 231 66 177 89 433 52 590 -31 133 -46 185 -54 185
-5 0 -9 9 -9 19 0 35 -132 271 -151 271 -5 0 -9 6 -9 13 -1 30 -214 246 -302
305 -21 13 -38 29 -38 33 0 5 -6 9 -13 9 -8 0 -27 12 -43 26 -16 14 -49 37
-74 51 -25 14 -56 33 -70 41 -14 9 -27 15 -29 13 -2 -1 -7 1 -10 6 -11 18
-177 97 -351 169 -25 10 -100 47 -167 81 -68 35 -123 60 -123 56 0 -3 -8 1
-17 9 -10 9 -47 30 -83 47 -36 18 -69 36 -74 42 -6 5 -18 9 -27 9 -10 0 -19 4
-21 8 -1 4 -28 23 -58 41 -30 19 -82 54 -115 80 -75 57 -215 200 -215 218 0 7
-4 13 -8 13 -4 0 -16 15 -27 33 -10 17 -21 34 -25 37 -21 17 -168 322 -194
402 -50 154 -80 414 -64 553 13 111 43 232 78 320 39 94 129 262 185 343 36
52 65 98 65 103 0 5 4 9 9 9 5 0 28 25 51 56 52 69 389 404 407 404 1 0 67 47
147 105 80 58 148 105 151 105 3 0 11 5 18 11 23 20 149 99 158 99 5 0 9 5 9
10 0 6 4 10 10 10 8 0 86 44 160 90 8 5 35 20 60 32 25 13 47 25 50 28 3 3 46
24 95 48 50 24 98 48 109 54 10 5 26 11 36 13 10 2 42 15 72 29 29 13 105 44
168 67 63 24 120 46 125 49 6 4 38 15 73 25 34 11 62 22 62 27 0 4 8 8 18 8
11 0 32 11 48 25 16 14 32 25 36 25 4 0 14 8 24 17 9 10 22 18 28 18 6 1 38
13 70 29 33 16 65 29 70 31 6 1 18 5 26 8 8 3 26 8 40 11 14 3 50 12 80 21 30
10 64 19 76 22 37 8 37 -21 -1 -212 -9 -44 -20 -111 -26 -150 -5 -38 -14 -83
-19 -99 -6 -16 -10 -45 -10 -64 0 -20 -4 -49 -9 -66 -5 -17 -15 -62 -21 -101
-22 -129 -29 -170 -45 -245 -9 -41 -20 -98 -25 -127 -4 -28 -11 -57 -15 -62
-3 -6 -10 -34 -15 -63 -6 -29 -17 -84 -25 -123 -9 -38 -20 -90 -25 -115 -8
-43 -25 -115 -57 -245 -8 -33 -17 -76 -20 -95 -3 -19 -9 -39 -13 -45 -4 -5
-11 -29 -15 -52 -4 -24 -11 -45 -16 -49 -5 -3 -9 -15 -9 -27 0 -12 -11 -49
-24 -82 -14 -33 -39 -97 -57 -142 -18 -46 -37 -83 -41 -83 -4 0 -8 -9 -8 -20
0 -11 -11 -38 -25 -60 -14 -22 -25 -44 -25 -49 0 -5 -7 -14 -15 -21 -8 -7 -15
-19 -15 -28 0 -8 -11 -30 -25 -48 -14 -18 -25 -35 -25 -39 0 -26 -238 -315
-259 -315 -5 0 -11 -7 -15 -15 -3 -8 -12 -15 -20 -15 -8 0 -16 -4 -18 -8 -4
-12 -139 -75 -213 -101 -51 -18 -82 -21 -220 -21 -88 1 -179 5 -202 10 -24 6
-60 14 -80 18 -64 15 -167 80 -245 156 -27 25 -48 49 -48 52 0 4 -10 21 -23
38 -37 50 -74 135 -91 212 -21 93 -21 288 -1 324 8 14 14 35 15 48 0 12 5 22
10 22 6 0 10 8 10 19 0 10 7 24 15 31 8 7 15 17 15 22 0 16 52 81 116 145 92
91 189 148 302 177 121 31 197 16 273 -52 39 -35 49 -51 54 -87 13 -82 -1
-122 -65 -188 -57 -58 -59 -59 -81 -43 -34 24 -67 20 -109 -14 -21 -16 -41
-30 -44 -30 -21 0 -60 -57 -83 -120 -15 -42 -17 -120 -3 -120 6 0 10 -6 10
-12 1 -16 46 -68 59 -68 6 0 14 -8 20 -17 5 -10 11 -16 13 -14 2 2 21 -2 43
-8 40 -10 57 -10 175 4 113 13 271 116 363 237 15 20 27 41 27 47 0 6 4 11 9
11 5 0 14 12 20 28 39 101 51 142 62 208 11 64 11 89 -3 167 -23 133 -64 216
-147 297 -60 58 -157 121 -187 120 -6 0 -17 6 -23 14 -6 8 -22 16 -34 19 -12
3 -59 15 -105 27 -64 17 -101 21 -160 17 -88 -6 -182 -24 -196 -38 -6 -5 -18
-9 -27 -9 -10 0 -30 -6 -46 -14 -15 -8 -46 -22 -68 -31 -54 -22 -129 -62 -195
-103 -55 -35 -270 -242 -270 -260 0 -6 -3 -12 -7 -14 -24 -10 -153 -237 -153
-269 0 -5 -4 -17 -9 -27 -5 -9 -17 -43 -27 -75 -22 -74 -27 -356 -6 -427 38
-131 46 -157 56 -175 5 -11 11 -26 12 -33 5 -26 38 -88 90 -167 48 -73 72
-104 148 -186 33 -35 181 -131 236 -154 25 -10 68 -28 95 -40 120 -54 278 -83
495 -90 92 -3 312 33 333 54 6 6 21 11 34 11 12 0 37 6 55 14 183 79 249 121
383 247 121 113 170 169 239 274 74 112 76 116 154 266 90 174 156 334 207
504 15 50 32 104 37 120 11 36 45 160 52 195 6 27 14 62 40 175 9 39 21 97 27
129 5 33 12 63 15 68 3 5 10 33 14 61 5 29 16 84 25 122 9 39 20 88 24 110 5
22 16 74 26 115 51 224 57 256 79 390 8 47 17 96 20 110 3 14 7 39 10 55 7 51
26 158 35 200 5 22 17 78 26 125 24 121 100 430 130 529 13 46 22 87 20 91 -3
5 1 11 7 13 27 11 -30 4 -82 -10z m-3811 -3058 c11 -144 28 -261 42 -287 5
-10 9 -24 9 -32 0 -41 82 -274 127 -358 8 -16 11 -28 7 -28 -4 0 0 -8 8 -17 8
-10 29 -49 47 -88 18 -38 36 -72 39 -75 4 -3 14 -19 23 -35 26 -50 43 -79 57
-93 6 -7 12 -17 12 -21 0 -4 14 -23 31 -42 58 -66 109 -120 109 -116 0 2 17
-13 38 -33 22 -20 68 -56 103 -80 141 -96 208 -140 213 -140 3 0 35 -18 71
-40 70 -43 388 -200 405 -200 10 0 15 -2 75 -32 17 -9 43 -18 58 -22 15 -4 57
-20 92 -36 35 -16 76 -32 90 -36 14 -3 25 -10 25 -15 0 -5 6 -9 14 -9 7 0 38
-13 68 -29 31 -17 58 -27 62 -24 3 4 6 2 6 -4 0 -13 87 -66 107 -66 7 0 13 -4
13 -8 0 -4 31 -30 70 -58 38 -28 105 -86 148 -128 76 -75 182 -209 182 -230 0
-6 7 -16 15 -23 8 -7 15 -21 15 -31 0 -11 5 -19 10 -19 6 0 10 -9 10 -21 0
-11 5 -30 12 -42 27 -50 40 -229 24 -332 -7 -47 -27 -108 -47 -147 -5 -10 -9
-22 -9 -28 0 -5 -18 -39 -40 -75 -22 -36 -40 -68 -40 -71 0 -4 -15 -23 -32
-43 -49 -55 -78 -94 -78 -104 0 -4 -4 -5 -10 -2 -5 3 -10 -1 -10 -9 0 -9 -4
-16 -8 -16 -5 0 -35 -26 -68 -57 -33 -32 -82 -76 -109 -99 -64 -52 -233 -174
-241 -174 -4 0 -21 -10 -38 -23 -17 -13 -58 -38 -91 -56 -33 -19 -62 -37 -65
-40 -8 -10 -133 -75 -275 -142 -55 -26 -146 -60 -237 -88 -124 -39 -306 -51
-405 -26 -36 9 -73 20 -82 25 -9 4 -33 16 -55 26 -21 11 -62 42 -90 69 -55 54
-108 115 -99 115 3 0 -1 7 -8 16 -17 20 -25 35 -69 121 -19 37 -38 69 -42 71
-5 2 -8 9 -8 16 0 6 -13 38 -30 71 -16 33 -30 66 -30 73 0 7 -4 20 -9 30 -22
40 -41 86 -41 98 0 7 -7 30 -16 51 -28 63 -31 73 -78 213 -52 156 -66 197 -77
225 -4 11 -15 45 -25 75 -9 30 -20 64 -25 75 -4 11 -15 45 -24 75 -9 30 -23
68 -31 83 -8 16 -14 39 -14 52 0 13 -4 27 -10 30 -5 3 -10 16 -10 28 0 12 -7
35 -15 51 -8 15 -15 35 -15 43 0 14 -23 91 -41 138 -4 11 -10 31 -12 45 -3 14
-12 52 -22 85 -22 79 -44 168 -54 230 -5 28 -13 75 -19 105 -29 157 -34 234
-29 445 5 216 12 297 35 403 7 28 17 76 23 105 16 77 93 343 110 377 4 8 15
35 24 60 80 209 219 481 236 462 4 -4 12 -65 18 -137z"/>
<path d="M6683 3588 c5 -52 21 -139 37 -208 43 -178 113 -433 131 -475 4 -11
22 -67 40 -125 18 -58 36 -112 40 -120 4 -8 16 -44 27 -80 31 -98 63 -193 73
-212 5 -10 9 -23 9 -29 0 -6 6 -25 14 -42 7 -18 22 -59 32 -92 10 -33 21 -64
25 -70 4 -5 10 -25 14 -42 3 -18 11 -33 16 -33 5 0 9 -11 9 -24 0 -13 8 -39
17 -58 29 -58 33 -68 33 -77 0 -13 56 -136 81 -181 11 -19 23 -43 26 -52 3
-10 9 -18 14 -18 5 0 9 -7 9 -15 0 -61 183 -28 375 67 104 52 330 184 376 220
20 15 41 28 45 28 5 0 25 13 44 29 19 17 46 39 60 50 83 66 111 92 166 148 83
86 124 164 124 236 0 56 -7 77 -49 137 -30 43 -112 121 -166 158 -22 15 -42
30 -45 33 -3 3 -21 14 -40 24 -19 10 -37 21 -40 24 -7 10 -76 41 -89 41 -6 0
-11 3 -11 8 0 4 -21 15 -48 25 -26 10 -55 23 -64 28 -10 5 -23 9 -29 9 -6 0
-27 7 -47 16 -52 23 -92 40 -127 54 -16 7 -38 16 -48 22 -10 5 -23 6 -29 2 -7
-4 -8 -3 -4 4 4 7 2 12 -5 12 -18 0 -336 159 -404 202 -33 21 -66 38 -72 38
-7 0 -13 5 -13 10 0 6 -4 10 -9 10 -15 0 -319 208 -364 248 -22 20 -60 56 -84
80 -24 23 -46 42 -50 42 -3 0 -3 -24 0 -52z"/>
<path d="M4750 6959 c-44 -24 -91 -73 -113 -118 -23 -46 -22 -146 1 -193 38
-78 83 -114 177 -142 33 -11 69 -23 80 -28 11 -4 31 -11 45 -13 14 -3 26 -9
28 -15 2 -5 9 -10 15 -10 20 0 148 -90 191 -135 45 -46 83 -118 112 -210 24
-77 45 -108 102 -147 44 -31 52 -33 132 -33 93 0 119 11 173 70 30 31 72 113
64 122 -3 2 3 23 13 46 10 23 16 45 14 49 -3 4 -1 8 5 8 5 0 12 8 15 18 9 27
128 148 154 156 12 4 22 11 22 16 0 4 8 10 18 14 9 3 24 10 32 15 29 18 113
52 188 76 141 45 196 115 195 247 -2 84 -12 109 -71 166 -52 50 -83 62 -164
62 -65 0 -117 -11 -198 -42 -109 -43 -237 -107 -287 -145 -24 -18 -43 -30 -43
-25 0 4 -4 2 -8 -4 -7 -12 -119 -104 -125 -104 -2 0 -17 12 -33 26 -54 48
-140 112 -180 135 -76 43 -190 96 -244 114 -30 9 -70 24 -88 31 -50 21 -179
17 -222 -7z"/>
</g>
</svg>
